<?xml version="1.0" encoding="iso-8859-1"?>
<!-- Generator: Adobe Illustrator 18.0.0, SVG Export Plug-In . SVG Version: 6.00 Build 0)  -->
<!DOCTYPE svg PUBLIC "-//W3C//DTD SVG 1.1//EN" "http://www.w3.org/Graphics/SVG/1.1/DTD/svg11.dtd">
<svg version="1.1" id="Capa_1" xmlns="http://www.w3.org/2000/svg" xmlns:xlink="http://www.w3.org/1999/xlink" x="0px" y="0px"
	 viewBox="0 0 355.217 355.217" style="enable-background:new 0 0 355.217 355.217;" xml:space="preserve">
<path d="M340.068,132.35c-20.811-39.281-59.371-64.663-98.237-64.663c-13.985,0-27.196,3.242-39.265,9.636
	c-2.84,1.504-5.435,2.996-7.943,4.438c-6.896,3.966-12.342,7.098-17.016,7.098c-4.675,0-10.121-3.133-17.018-7.099
	c-2.508-1.442-5.101-2.934-7.938-4.438c-12.069-6.394-25.28-9.636-39.266-9.636c-38.868,0-77.429,25.382-98.237,64.664
	c-29.166,55.057-14.94,119.955,31.712,144.669c12.127,6.424,22.74,9.547,32.445,9.547c20.392,0,33.007-13.939,45.206-27.418
	c13.478-14.893,27.415-30.292,53.096-30.292c28.068,0,41.139,15.997,53.778,31.468c10.927,13.374,22.225,27.202,42.26,27.206
	c0.003,0,0.006,0,0.01,0c9.998,0,21.35-3.439,34.701-10.511C355.009,252.306,369.234,187.407,340.068,132.35z M126.107,172.969h-22
	v22c0,4.411-3.589,8-8,8c-4.411,0-8-3.589-8-8v-22h-22c-4.411,0-8-3.589-8-8c0-4.411,3.589-8,8-8h22v-22c0-4.411,3.589-8,8-8
	c4.411,0,8,3.589,8,8v22h22c4.411,0,8,3.589,8,8C134.107,169.38,130.519,172.969,126.107,172.969z M238.848,196.755
	c-10.8,0-19.586-8.785-19.586-19.584c0-10.799,8.786-19.585,19.586-19.585c10.8,0,19.586,8.786,19.586,19.585
	C258.434,187.97,249.647,196.755,238.848,196.755z M277.685,161.326c-10.8,0-19.586-8.786-19.586-19.585
	c0-10.799,8.786-19.584,19.586-19.584c10.8,0,19.586,8.785,19.586,19.584C297.271,152.54,288.485,161.326,277.685,161.326z"/>
<g>
</g>
<g>
</g>
<g>
</g>
<g>
</g>
<g>
</g>
<g>
</g>
<g>
</g>
<g>
</g>
<g>
</g>
<g>
</g>
<g>
</g>
<g>
</g>
<g>
</g>
<g>
</g>
<g>
</g>
</svg>
